<mxfile host="app.diagrams.net" modified="2022-10-27T01:47:48.059Z" agent="5.0 (Windows NT 10.0; Win64; x64) AppleWebKit/537.36 (KHTML, like Gecko) Chrome/107.0.0.0 Safari/537.36" etag="C7jq6Mk8RJfip9aZ-0x0" version="20.5.1" type="github">
  <diagram id="KuiJVW5VL6G9EVJq28LL" name="第 1 页">
    <mxGraphModel dx="1038" dy="579" grid="1" gridSize="10" guides="1" tooltips="1" connect="1" arrows="1" fold="1" page="1" pageScale="1" pageWidth="827" pageHeight="1169" math="0" shadow="0">
      <root>
        <mxCell id="0" />
        <mxCell id="1" parent="0" />
        <mxCell id="P4OBujrNx8n9AJKJjuBE-1" value="" style="shape=table;html=1;whiteSpace=wrap;startSize=0;container=1;collapsible=0;childLayout=tableLayout;" vertex="1" parent="1">
          <mxGeometry x="260" y="140" width="400" height="240" as="geometry" />
        </mxCell>
        <mxCell id="P4OBujrNx8n9AJKJjuBE-2" value="" style="shape=tableRow;horizontal=0;startSize=0;swimlaneHead=0;swimlaneBody=0;top=0;left=0;bottom=0;right=0;collapsible=0;dropTarget=0;fillColor=none;points=[[0,0.5],[1,0.5]];portConstraint=eastwest;" vertex="1" parent="P4OBujrNx8n9AJKJjuBE-1">
          <mxGeometry width="400" height="80" as="geometry" />
        </mxCell>
        <mxCell id="P4OBujrNx8n9AJKJjuBE-3" value="" style="shape=partialRectangle;html=1;whiteSpace=wrap;connectable=0;fillColor=none;top=0;left=0;bottom=0;right=0;overflow=hidden;" vertex="1" parent="P4OBujrNx8n9AJKJjuBE-2">
          <mxGeometry width="133" height="80" as="geometry">
            <mxRectangle width="133" height="80" as="alternateBounds" />
          </mxGeometry>
        </mxCell>
        <mxCell id="P4OBujrNx8n9AJKJjuBE-4" value="io&lt;br&gt;" style="shape=partialRectangle;html=1;whiteSpace=wrap;connectable=0;fillColor=none;top=0;left=0;bottom=0;right=0;overflow=hidden;" vertex="1" parent="P4OBujrNx8n9AJKJjuBE-2">
          <mxGeometry x="133" width="134" height="80" as="geometry">
            <mxRectangle width="134" height="80" as="alternateBounds" />
          </mxGeometry>
        </mxCell>
        <mxCell id="P4OBujrNx8n9AJKJjuBE-5" value="nio" style="shape=partialRectangle;html=1;whiteSpace=wrap;connectable=0;fillColor=none;top=0;left=0;bottom=0;right=0;overflow=hidden;" vertex="1" parent="P4OBujrNx8n9AJKJjuBE-2">
          <mxGeometry x="267" width="133" height="80" as="geometry">
            <mxRectangle width="133" height="80" as="alternateBounds" />
          </mxGeometry>
        </mxCell>
        <mxCell id="P4OBujrNx8n9AJKJjuBE-6" value="" style="shape=tableRow;horizontal=0;startSize=0;swimlaneHead=0;swimlaneBody=0;top=0;left=0;bottom=0;right=0;collapsible=0;dropTarget=0;fillColor=none;points=[[0,0.5],[1,0.5]];portConstraint=eastwest;" vertex="1" parent="P4OBujrNx8n9AJKJjuBE-1">
          <mxGeometry y="80" width="400" height="80" as="geometry" />
        </mxCell>
        <mxCell id="P4OBujrNx8n9AJKJjuBE-7" value="面向" style="shape=partialRectangle;html=1;whiteSpace=wrap;connectable=0;fillColor=none;top=0;left=0;bottom=0;right=0;overflow=hidden;" vertex="1" parent="P4OBujrNx8n9AJKJjuBE-6">
          <mxGeometry width="133" height="80" as="geometry">
            <mxRectangle width="133" height="80" as="alternateBounds" />
          </mxGeometry>
        </mxCell>
        <mxCell id="P4OBujrNx8n9AJKJjuBE-8" value="" style="shape=partialRectangle;html=1;whiteSpace=wrap;connectable=0;fillColor=none;top=0;left=0;bottom=0;right=0;overflow=hidden;" vertex="1" parent="P4OBujrNx8n9AJKJjuBE-6">
          <mxGeometry x="133" width="134" height="80" as="geometry">
            <mxRectangle width="134" height="80" as="alternateBounds" />
          </mxGeometry>
        </mxCell>
        <mxCell id="P4OBujrNx8n9AJKJjuBE-9" value="" style="shape=partialRectangle;html=1;whiteSpace=wrap;connectable=0;fillColor=none;top=0;left=0;bottom=0;right=0;overflow=hidden;" vertex="1" parent="P4OBujrNx8n9AJKJjuBE-6">
          <mxGeometry x="267" width="133" height="80" as="geometry">
            <mxRectangle width="133" height="80" as="alternateBounds" />
          </mxGeometry>
        </mxCell>
        <mxCell id="P4OBujrNx8n9AJKJjuBE-10" value="" style="shape=tableRow;horizontal=0;startSize=0;swimlaneHead=0;swimlaneBody=0;top=0;left=0;bottom=0;right=0;collapsible=0;dropTarget=0;fillColor=none;points=[[0,0.5],[1,0.5]];portConstraint=eastwest;" vertex="1" parent="P4OBujrNx8n9AJKJjuBE-1">
          <mxGeometry y="160" width="400" height="80" as="geometry" />
        </mxCell>
        <mxCell id="P4OBujrNx8n9AJKJjuBE-11" value="" style="shape=partialRectangle;html=1;whiteSpace=wrap;connectable=0;fillColor=none;top=0;left=0;bottom=0;right=0;overflow=hidden;" vertex="1" parent="P4OBujrNx8n9AJKJjuBE-10">
          <mxGeometry width="133" height="80" as="geometry">
            <mxRectangle width="133" height="80" as="alternateBounds" />
          </mxGeometry>
        </mxCell>
        <mxCell id="P4OBujrNx8n9AJKJjuBE-12" value="" style="shape=partialRectangle;html=1;whiteSpace=wrap;connectable=0;fillColor=none;top=0;left=0;bottom=0;right=0;overflow=hidden;" vertex="1" parent="P4OBujrNx8n9AJKJjuBE-10">
          <mxGeometry x="133" width="134" height="80" as="geometry">
            <mxRectangle width="134" height="80" as="alternateBounds" />
          </mxGeometry>
        </mxCell>
        <mxCell id="P4OBujrNx8n9AJKJjuBE-13" value="" style="shape=partialRectangle;html=1;whiteSpace=wrap;connectable=0;fillColor=none;top=0;left=0;bottom=0;right=0;overflow=hidden;pointerEvents=1;" vertex="1" parent="P4OBujrNx8n9AJKJjuBE-10">
          <mxGeometry x="267" width="133" height="80" as="geometry">
            <mxRectangle width="133" height="80" as="alternateBounds" />
          </mxGeometry>
        </mxCell>
      </root>
    </mxGraphModel>
  </diagram>
</mxfile>
